<?xml version="1.0" encoding="utf-8"?>
<!-- Generator: Adobe Illustrator 19.0.0, SVG Export Plug-In . SVG Version: 6.00 Build 0)  -->
<svg version="1.1" id="Layer_1" xmlns="http://www.w3.org/2000/svg" xmlns:xlink="http://www.w3.org/1999/xlink" x="0px" y="0px"
	 viewBox="275 -275 650 650" style="enable-background:new 275 -275 650 650;" xml:space="preserve">
<style type="text/css">
	.st0{fill:none;stroke:#FFFFFF;stroke-width:2;}
	.st1{fill:none;stroke:#0071BC;stroke-width:3;}
</style>
<path id="road" class="st0" d="M924,91H274 M357-275v650 M452,91v284 M452-275v165.5 M713-275v201.5c0,2.2-1.8,4-4,4H357 M713,192.5
	V375 M356.5,209.2l288,100.1 M644.5,348H835"/>
<path id="road_1_" class="st1" d="M396.5-275v160c0,3.3,2.7,6,6,6h147c3.3,0,6,2.7,6,6v289c0,3.3,2.7,6,6,6H924"/>
<path id="road_2_" class="st1" d="M327.5-275V20.5c0,3.3,2.7,6,6,6h496c3.3,0,6,2.7,6,6V375"/>
<path id="road_3_" class="st1" d="M835.5-275v222c0,3.3-2.3,7.4-5.2,9L649.7,60.5c-2.9,1.6-5.2,5.7-5.2,9V375 M644.5-275v85.5
	c0,3.3-2.7,6-6,6H274 M836-183.5h88 M327.5,375V165c0-3.3,1.9-7.9,4.3-10.2l64.4-63.5 M396.5,26.5V375 M327,192h-53"/>
</svg>
