<?xml version="1.0" encoding="utf-8"?>
<!-- Generator: Adobe Illustrator 19.0.0, SVG Export Plug-In . SVG Version: 6.00 Build 0)  -->
<svg version="1.1" id="Layer_1" xmlns="http://www.w3.org/2000/svg" xmlns:xlink="http://www.w3.org/1999/xlink" x="0px" y="0px"
	 viewBox="-37 39 24 24" style="enable-background:new -37 39 24 24;" xml:space="preserve">
<style type="text/css">
	.st0{fill:#0071BC;}
</style>
<path class="st0" d="M-30.5,59.8c0,1.8-1.5,3.2-3.3,3.2c-1.8,0-3.3-1.5-3.3-3.2s1.5-3.2,3.3-3.2C-32,56.5-30.5,58-30.5,59.8z
	 M-37,47.2V52c6,0.1,11,5,11,11h4.8C-21.2,54.3-28.3,47.2-37,47.2z M-37,43.8c10.6,0,19.2,8.6,19.2,19.2h4.8c0-13.2-10.8-24-24-24
	C-37,39-37,43.8-37,43.8z"/>
</svg>
